<?xml version="1.0" encoding="UTF-8"?>
<svg width="57px" height="67px" viewBox="0 0 57 67" version="1.1" xmlns="http://www.w3.org/2000/svg"
    xmlns:xlink="http://www.w3.org/1999/xlink">
    <title>SBTAuth</title>
    <g stroke="none" stroke-width="1" fill="none" fill-rule="evenodd">
        <polygon id="Fill-1" fill="#3B3BBC"
            points="27.9237553 34.2170106 0.09077897 17.7563573 0.0327092479 38.7061589 13.5094958 46.6764858 13.5028675 49.0910967 0.0260809422 41.1209175 0 50.5181068 27.8331204 66.9786126 27.891046 46.0288109 14.413539 38.0581889 14.4168532 36.8508096 14.4201673 35.6443159 27.8978184 43.614938"></polygon>
        <path
            d="M57,17.7346451 L29.3477171,34.2817928 L29.3298495,67 L56.9821324,50.4528523 L57,17.7346451 L57,17.7346451 Z M35.8911517,41.0391315 L35.8925926,38.284447 L50.4464788,29.5753753 L50.4434529,35.0856299 L35.8897108,43.7947017 L35.8911517,41.0391315 L35.8911517,41.0391315 Z M35.8849557,52.4904893 L35.8863966,49.7349192 L50.4401387,41.025995 L50.4372568,46.5369877 L35.8833706,55.2459118 L35.8849557,52.4904893 Z"
            id="Fill-2" fill="#6248EA"></path>
        <path
            d="M28.3646385,0 L0.821002123,16.5248599 L28.7621927,32.9216019 L34.5609516,29.4426374 L30.2224373,26.8966612 L25.4432848,24.0920874 L41.3894034,14.5253041 L50.5070702,19.875854 L56.3058291,16.3967419 L28.3646385,0 L28.3646385,0 Z M16.3104881,18.7326813 L12.7072835,16.618144 L28.653258,7.05136065 L35.8590909,11.2799925 L19.9131164,20.8467759 L16.3104881,18.7326813 Z"
            id="Fill-3" fill="#7F71EA"></path>
    </g>
</svg>
